<svg width="304" height="88.54" viewBox="-82.09 134.68 2763.32 804.83" fill="none" xmlns="http://www.w3.org/2000/svg">
<path d="M1090.38 313.162C1121.73 310.115 1161.05 322.007 1185.08 342.367C1210.99 364.326 1223.12 397.323 1225.58 430.467C1233.13 532.213 1166.67 638.028 1058.49 646.629C1057.67 646.72 1056.85 646.8 1056.03 646.867C978.448 653.22 923.773 604.783 919.514 527.872C913.529 419.806 976.37 322.193 1090.38 313.162ZM1086.07 389.936C1026.41 397.565 1013.9 476.844 1016.84 526.307C1018.24 549.738 1034.25 568.61 1059.53 567.399C1080.87 562.663 1090.12 555.203 1102.71 536.502C1124.14 504.657 1151.88 389.134 1086.07 389.936Z" fill="#7C7E7F"/>
<path d="M2108.45 171.782C2127.58 170.576 2175.65 170.391 2192.47 174.692C2189.86 195.89 2183.35 226.008 2179.39 248.195C2167.42 315.184 2153.89 380.31 2143.08 447.606C2162.72 429.924 2180.21 407.735 2197.21 387.312C2217.29 363.197 2236.07 341.947 2257.72 319.272C2288.84 319.205 2332.58 317.929 2362.31 321.585C2351.78 340.79 2339.75 351.585 2325.65 368.003C2305.87 391.196 2285.92 414.246 2265.8 437.15C2257.78 446.367 2242.15 463.567 2236.63 473.848C2242.85 491.044 2252.39 507.381 2260.39 524.031C2273.7 552.127 2286.83 580.302 2299.79 608.553L2312.29 637.156C2294.39 644.318 2277.92 641.036 2259.08 641.049C2244.13 640.887 2229.05 644.705 2214.38 640.449C2208.34 639.217 2204.03 632.488 2201.47 626.792C2180.54 580.37 2161.91 533.381 2137.8 488.436C2122.49 528.524 2120 592.881 2103.74 639.754C2072.84 642.793 2041 641.933 2010.09 639.515C2013.26 593.27 2028.64 534.072 2037.42 486.494C2049.36 419.865 2061.65 353.296 2074.27 286.791C2080.03 255.931 2086.97 209.678 2097.29 179.731C2098.75 175.484 2104.12 173.005 2108.45 171.782Z" fill="#7C7E7F"/>
<path d="M305.133 185.834C340.897 183.718 381.935 188.848 414.592 204.466C422.642 208.316 421.217 216.836 417.944 223.536C406.519 246.923 392.313 269.833 377.486 291.235C344.004 269.263 250.753 262.97 251.951 324.734C252.65 360.733 311.505 382.421 335.741 404.385C361.143 427.406 376.667 451.314 379.372 487.345C385.435 563.865 336.537 622.486 264.083 641.811C244.7 646.981 229.495 648.544 209.677 649.964C178.39 651.77 120.573 642.695 93.1502 628.341C78.8407 620.851 129.318 548.343 138.607 538.86C170.933 552.131 234.573 569.148 260.985 537.294C268.86 527.707 272.615 515.394 271.429 503.047C268.129 468.942 217.144 450.805 192.263 428.209C165.477 405.72 150.601 381.046 148.132 345.316C141.248 245.718 214.709 193.574 305.133 185.834Z" fill="#7C7E7F"/>
<path d="M734.5 311.902C758.617 309.909 787.005 313.503 810.131 319.817C854.897 332.041 882.695 362.199 881.316 409.841C880.286 445.458 869.431 476.988 862.493 511.615C853.937 554.312 848.846 597.223 836.468 639.235C810.302 643.53 768.755 641.446 742.388 639.696C742.586 635.081 743.079 630.363 743.664 625.77C751.349 565.325 764.722 505.757 775.865 445.908C778.305 432.803 780.772 413.102 772.13 401.855C764.959 392.522 755.213 391.299 744.427 389.891C732.298 389.494 705.784 389.723 702.61 403.771C693.106 445.832 686.143 491.038 677.732 533.397C670.364 570.5 666.83 604.164 654.914 640.174C621.35 642.163 594.199 642.383 560.853 639.737C569.64 579.71 579.477 522.742 591.411 463.175C599.971 420.45 607.073 379.135 617.749 336.665C659.203 320.978 689.699 314.828 734.5 311.902Z" fill="#7C7E7F"/>
<path d="M1839.18 311.901C1884.64 309.768 1947.02 318.045 1974.11 359.202C1997.23 394.332 1981.4 436.853 1975.35 474.505C1966.42 529.921 1954.53 584.582 1942.82 639.509C1906.82 642.307 1884.63 642.322 1848.52 639.614C1852.19 575.16 1873.91 508.931 1882.86 444.941C1887.29 413.281 1885.29 393.84 1849.34 389.998C1833.94 389.053 1812.27 389.476 1807.43 407.225C1802.41 425.596 1800.54 443.95 1797.14 462.663C1792.62 486.319 1788.26 510.003 1784.03 533.715C1777.78 570.574 1773.07 603.951 1762.13 639.981C1732.72 641.307 1695.58 643.778 1666.93 638.422C1678.5 570.534 1690.8 502.775 1703.85 435.153C1709.98 403.207 1716.08 368.525 1723.38 337.114C1763.99 321.606 1795.49 314.854 1839.18 311.901Z" fill="#7C7E7F"/>
<path d="M1330.38 194.758C1362.33 194.007 1396.16 194.734 1428.41 194.544C1418.63 233.115 1409.56 285.038 1401.58 324.739L1356.07 552.093C1398.64 552.639 1441.21 553.577 1483.76 554.907C1479.09 581.868 1474.26 614.14 1467.49 640.178C1392.64 640.66 1317.78 640.597 1242.93 639.989C1249.77 603.754 1255.47 566.958 1262.28 530.569C1276.63 453.51 1291.92 376.63 1308.14 299.944C1312.04 280.887 1324.82 208.36 1330.38 194.758Z" fill="#7C7E7F"/>
<path d="M2396.97 322.261L2511.88 322.222C2495.65 340.877 2476.7 359.354 2459.68 377.534C2430.88 408.272 2402.47 439.554 2373.33 469.935C2397.57 524.329 2420.69 580.355 2445.49 634.22L2446.19 637.259C2441.83 641.614 2354.96 639.18 2340.34 639.262L2265.86 474.277C2291.55 443.593 2317.46 413.62 2343.78 383.498C2361.63 363.071 2378.38 342.131 2396.97 322.261Z" fill="#FBB404"/>
<path d="M1578.83 319.662C1600.6 317.55 1637.29 318.656 1658.82 321.79C1657.67 349.324 1646.52 397.37 1641.04 426.526C1628.02 497.877 1613.81 569.005 1598.41 639.88L1583.58 641.532C1560.62 641.713 1524.36 643.31 1503.07 638.895C1512.13 571.955 1527.45 499.438 1540.04 432.436L1552.47 366.175C1555.07 352.418 1558.09 333.711 1562.56 320.755L1578.83 319.662Z" fill="#7C7E7F"/>
<path d="M472.337 319.453C499.008 317.842 525.767 318.435 552.34 321.223C550.888 335.32 548.592 349.991 545.685 363.855C526.542 455.177 512.57 548.866 491.426 639.718L475.904 641.12C456.813 642.798 414.442 642.341 396.018 638.862C401.274 612.975 405.428 581.016 410.131 554.295C418.915 504.843 428.149 455.471 437.827 406.186C442.769 379.856 446.478 344.391 455.681 320.362L472.337 319.453Z" fill="#7C7E7F"/>
<path d="M1908.55 739.204C1979.55 736.314 2003 810.095 1964.24 861.988C1948.34 883.28 1928.13 890.583 1902.64 893.761C1860.81 894.025 1828.66 875.271 1825.46 830.414C1824.03 807.931 1831.48 785.787 1846.22 768.737C1863.08 749.294 1883.35 740.985 1908.55 739.204ZM1952.71 846.164C1978.09 797.375 1956.32 754.734 1900.85 757.848C1880.52 762.666 1866.27 769.945 1854.82 788.42C1845.74 802.997 1842.85 820.588 1846.77 837.305C1854.14 867.75 1880.67 879.182 1909.91 875.288C1927.01 871.137 1944.5 861.96 1952.71 846.164Z" fill="#FBB404"/>
<path d="M1683.06 742.149C1704.05 742.047 1735.18 738.552 1752.34 751.272C1769.3 763.845 1767.15 791.694 1754.57 806.71C1744.45 818.812 1733.91 820.831 1718.92 822.312C1732.5 845.29 1746.39 868.094 1760.55 890.718L1737.9 890.632L1728.52 874.961C1722.58 865.456 1702.02 824.829 1693.04 824.052C1687.34 828.697 1681.32 879.724 1679.63 890.562L1660.44 890.799C1661.75 884.008 1662.97 876.741 1663.92 869.892C1669.74 827.646 1678.9 784.557 1683.06 742.149ZM1725.54 760.248C1720.03 758.879 1710.33 759.368 1704.54 759.441L1701.24 760.556C1698.1 769.048 1694.74 797.407 1693.44 807.254C1703.51 807.157 1720.51 807.65 1729.65 804.732C1750.79 792.843 1750.8 766.519 1725.54 760.248Z" fill="#FBB404"/>
<path d="M521.067 174.299C592.548 169.859 598.282 262.316 523.711 275.88C497.684 278.012 471.759 264.585 467.585 237.048C465.55 223.175 469.106 209.064 477.469 197.808C488.463 182.995 503.448 176.987 521.067 174.299Z" fill="#FBB404"/>
<path d="M1625.94 174.196C1651.69 172.003 1676.69 180.533 1682.77 208.425C1685.68 222.183 1683 236.531 1675.3 248.306C1664.84 264.502 1650.28 271.853 1631.98 275.737C1618.59 276.464 1608.04 275.667 1596.15 268.481C1585.71 262.208 1578.24 252 1575.43 240.16C1572.34 227.262 1574.61 213.661 1581.71 202.461C1592.13 185.802 1607.55 178.495 1625.94 174.196Z" fill="#7C7E7F"/>
<path d="M2066.2 742.132C2096.04 741.912 2148.75 734.784 2147.59 778.367C2146.12 833.117 2106.91 819.873 2073.12 825.292C2071.03 827.593 2070.59 834.512 2070.11 837.944L2061.7 890.676L2042.39 890.884C2051.87 847.633 2057.77 788.253 2066.2 742.132ZM2127.12 786.463C2132.98 757.192 2103.54 759.302 2085.29 759.466L2083.01 760.63C2079.82 770.633 2076.59 796.757 2074.93 808.251C2087.01 808.226 2101.66 808.972 2112.99 805.166C2121.11 800.132 2125.14 796.332 2127.12 786.463Z" fill="#FBB404"/>
<path d="M1486.22 742.244L1505.88 742.298C1499.91 775.039 1492.91 813.663 1490.52 846.509C1487.6 886.991 1554.32 884.757 1564.42 849.314C1574.38 814.322 1576.93 778.074 1583.21 742.209L1602.42 742.288L1599.73 756.986L1592.11 806.769C1586.73 841.317 1584.27 880.296 1543.63 891.125C1515.41 899.42 1469.83 891.094 1471.29 853.437C1472.7 817.186 1481.57 778.527 1486.22 742.244Z" fill="#FBB404"/>
<path d="M1334.54 742.218L1414.09 742.28C1413.12 747.264 1412.45 753.996 1411.8 759.182L1351.08 759.631C1348.44 773.424 1346.25 787.791 1343.97 801.688L1404.33 801.762C1403.36 807.387 1402.58 813.2 1401.76 818.861L1341.15 818.807C1340.55 824.406 1339.25 831.53 1338.38 837.224C1336.29 849.211 1334.28 861.213 1332.36 873.228C1352.29 872.669 1374.32 872.991 1394.39 872.92L1391.99 890.318L1310.95 890.557L1334.54 742.218Z" fill="#FBB404"/>
<path d="M2227.69 742.189L2307.41 742.397L2304.71 759.149C2284.4 759.682 2264.08 759.807 2243.77 759.524L2237.35 801.82L2297.85 801.829C2297.1 807.207 2296.59 813.216 2295.99 818.664C2276.33 819.325 2254.73 818.905 2234.93 818.921L2231.49 839.077C2229.51 850.427 2227.9 861.836 2226.64 873.287C2247.22 872.926 2267.82 872.93 2288.4 873.297C2287.82 878.831 2286.93 884.761 2286.21 890.315L2204.43 890.702C2212.94 841.399 2218.91 791.467 2227.69 742.189Z" fill="#FBB404"/>
</svg>
