<svg width="500" height="200" viewBox="0 0 500 200" fill="none" xmlns="http://www.w3.org/2000/svg">
<path fill-rule="evenodd" clip-rule="evenodd" d="M7.77607 44.8631C7.34906 45.2894 7 59.7032 7 76.8937V108.148H29.3537H51.7073L56.6965 103.246C61.567 98.4603 61.6857 98.1644 61.6799 90.7252C61.6752 84.453 61.1842 82.4927 58.906 79.6414L56.138 76.1786L58.9119 72.0915C61.0807 68.8966 61.6857 66.4646 61.6857 60.9471C61.6857 54.1729 61.4856 53.6931 56.6965 48.9875L51.7073 44.0862H30.1297C18.2618 44.0862 8.20192 44.4356 7.77607 44.8631ZM75.7958 49.3019L70.9939 54.5165V81.3827V108.25L79.4295 107.908L87.865 107.565L88.4468 98.2471L89.0286 88.9291L98.5799 88.5913L108.131 88.2536L108.47 97.9093L108.808 107.565L117.244 107.908L125.68 108.25V81.0694V53.8887L120.69 48.9875L115.701 44.0862H98.1506H80.5988L75.7958 49.3019ZM131.986 45.6574C131.644 46.5473 131.525 50.0963 131.722 53.5428L132.079 59.8103L139.933 60.1551L147.787 60.4987V84.3738V108.25L156.222 107.908L164.658 107.565L164.973 83.9789L165.287 60.3927H172.805C181.354 60.3927 182.011 59.5762 181.315 49.8168L180.947 44.6686L156.776 44.3541C137.005 44.0955 132.493 44.3331 131.986 45.6574ZM192.268 49.0539L187.346 54.0751V76.21V98.345L192.365 103.275L197.384 108.206L217.09 107.885L236.796 107.565L237.14 101.054C237.373 96.6304 236.976 94.1216 235.9 93.2282C234.957 92.4443 228.251 91.7816 219.268 91.5859L204.218 91.2586L203.893 75.8257L203.568 60.3927H219.869C238.382 60.3927 237.938 60.6653 237.164 49.8168L236.796 44.6686L216.993 44.3506L197.191 44.0338L192.268 49.0539ZM246.686 76.1168V108.148H254.831H262.976V96.5221C262.976 83.039 262.708 83.301 275.811 83.9172L283.337 84.2701L283.919 95.9176L284.501 107.565H292.646H300.79V76.1168V44.6686H292.646H284.501L284.167 56.0692L283.834 67.4709L273.695 67.1343L263.557 66.7988L263.225 55.4425L262.892 44.0862H254.789H246.686V76.1168ZM315.576 49.0806L310.68 54.0751V76.7982V99.5214L315.092 103.834L319.504 108.148H337.545H355.585L360.185 103.433L364.784 98.7177V75.9771V53.2365L359.885 48.6613L354.984 44.0862H337.729H320.472L315.576 49.0806ZM370.02 44.6744C370.02 44.9982 373.717 51.7561 378.235 59.6927L386.449 74.1216L378.235 90.5365C373.717 99.5645 370.02 107.22 370.02 107.55C370.02 107.878 374.467 108.148 379.903 108.148H389.785L398.403 90.9232L407.02 73.6977L398.701 58.924L390.382 44.1503L380.201 44.1176C374.602 44.1002 370.02 44.3506 370.02 44.6744ZM407.7 58.8389L416.221 73.6779L408.246 90.0251C403.86 99.0159 400.272 106.792 400.272 107.305C400.272 107.818 404.751 108.087 410.227 107.902L420.182 107.565L428.429 90.4316L436.676 73.2993L428.529 58.9834L420.382 44.6686L409.78 44.3343L399.178 44L407.7 58.8389ZM448.124 49.3019L443.322 54.5165V76.1168V97.7172L448.124 102.932L452.927 108.148H473.196H493.464L493.119 100.868L492.772 93.5881L476.774 93.2643L460.775 92.9405V87.7317V82.523H474.737H488.7V76.1168V69.7107H474.737H460.775V64.5019V59.2932L476.774 58.9694L492.772 58.6456L493.119 51.3659L493.464 44.0862H473.196H452.927L448.124 49.3019ZM22.1258 63.3046V68.546H34.3429H46.5599V63.3046V58.0632H34.3429H22.1258V63.3046ZM88.4468 66.7988V74.3697H98.3368H108.227V66.7988V59.228H98.3368H88.4468V66.7988ZM326.97 76.1168V91.841H337.441H347.913V76.1168V60.3927H337.441H326.97V76.1168ZM22.1258 88.3467V94.1705H34.3429H46.5599V88.3467V82.523H34.3429H22.1258V88.3467Z" fill="black"/>
<path d="M151.128 171V151.4H154.908V159.128L162.16 151.4H167.116L158.828 160.248L167.424 171H162.692L156.336 162.936L154.908 164.448V171H151.128ZM169.776 171V151.4H173.78L183.356 164.56V151.4H187.164V171H183.356L173.612 157.588V171H169.776ZM200.393 171.336C198.414 171.336 196.659 170.907 195.129 170.048C193.617 169.171 192.431 167.976 191.573 166.464C190.714 164.933 190.285 163.188 190.285 161.228C190.285 159.231 190.714 157.476 191.573 155.964C192.431 154.433 193.607 153.239 195.101 152.38C196.613 151.521 198.349 151.092 200.309 151.092C202.287 151.092 204.023 151.531 205.517 152.408C207.029 153.267 208.214 154.461 209.073 155.992C209.931 157.504 210.361 159.249 210.361 161.228C210.361 163.188 209.931 164.933 209.073 166.464C208.233 167.976 207.057 169.171 205.545 170.048C204.051 170.907 202.334 171.336 200.393 171.336ZM200.393 167.836C201.587 167.836 202.633 167.556 203.529 166.996C204.443 166.417 205.153 165.633 205.657 164.644C206.179 163.655 206.441 162.516 206.441 161.228C206.441 159.921 206.179 158.773 205.657 157.784C205.134 156.795 204.415 156.02 203.501 155.46C202.586 154.881 201.522 154.592 200.309 154.592C199.133 154.592 198.078 154.881 197.145 155.46C196.23 156.02 195.511 156.795 194.989 157.784C194.466 158.773 194.205 159.921 194.205 161.228C194.205 162.516 194.466 163.655 194.989 164.644C195.511 165.633 196.239 166.417 197.173 166.996C198.106 167.556 199.179 167.836 200.393 167.836ZM216.817 171L211.021 151.4H214.913L218.889 165.12L222.669 151.4H226.477L230.285 164.924L234.261 151.4H238.153L232.301 171H228.269L224.573 157.392L220.821 171H216.817ZM247.187 171V151.4H251.359L257.071 159.856L262.783 151.4H266.927V171H263.119V157.392L257.071 166.296L251.023 157.42V171H247.187ZM280.154 171.336C278.176 171.336 276.421 170.907 274.89 170.048C273.378 169.171 272.193 167.976 271.334 166.464C270.476 164.933 270.046 163.188 270.046 161.228C270.046 159.231 270.476 157.476 271.334 155.964C272.193 154.433 273.369 153.239 274.862 152.38C276.374 151.521 278.11 151.092 280.07 151.092C282.049 151.092 283.785 151.531 285.278 152.408C286.79 153.267 287.976 154.461 288.834 155.992C289.693 157.504 290.122 159.249 290.122 161.228C290.122 163.188 289.693 164.933 288.834 166.464C287.994 167.976 286.818 169.171 285.306 170.048C283.813 170.907 282.096 171.336 280.154 171.336ZM280.154 167.836C281.349 167.836 282.394 167.556 283.29 166.996C284.205 166.417 284.914 165.633 285.418 164.644C285.941 163.655 286.202 162.516 286.202 161.228C286.202 159.921 285.941 158.773 285.418 157.784C284.896 156.795 284.177 156.02 283.262 155.46C282.348 154.881 281.284 154.592 280.07 154.592C278.894 154.592 277.84 154.881 276.906 155.46C275.992 156.02 275.273 156.795 274.75 157.784C274.228 158.773 273.966 159.921 273.966 161.228C273.966 162.516 274.228 163.655 274.75 164.644C275.273 165.633 276.001 166.417 276.934 166.996C277.868 167.556 278.941 167.836 280.154 167.836ZM293.233 171V151.4H300.513C301.895 151.4 303.117 151.671 304.181 152.212C305.245 152.753 306.076 153.5 306.673 154.452C307.271 155.385 307.569 156.477 307.569 157.728C307.569 159.016 307.224 160.155 306.533 161.144C305.843 162.115 304.937 162.852 303.817 163.356L308.353 171H304.013L300.009 164.056C299.897 164.056 299.776 164.056 299.645 164.056C299.533 164.056 299.412 164.056 299.281 164.056H297.069V171H293.233ZM297.069 160.556H300.541C301.12 160.556 301.633 160.435 302.081 160.192C302.548 159.949 302.912 159.613 303.173 159.184C303.453 158.755 303.593 158.269 303.593 157.728C303.593 156.888 303.285 156.207 302.669 155.684C302.072 155.161 301.297 154.9 300.345 154.9H297.069V160.556ZM311.28 171V151.4H323.684V154.9H315.116V159.352H322.508V162.768H315.116V167.5H323.796V171H311.28ZM336.681 165.82L334.441 163.58L346.145 151.876L348.357 154.116L336.681 165.82ZM337.689 154.536V151.4H348.833L347.909 154.48L337.689 154.536ZM345.725 162.544L345.753 152.324L348.833 151.4V162.544H345.725Z" fill="#EAB706"/>
</svg>
